PathFileType	4	(X/Y/Z)	TVC_4_BWA_7_walk_RCNL2025.trc
DataRate	CameraRate	NumFrames	NumMarkers	Units	OrigDataRate	OrigDataStartFrame	OrigNumFrames
100	100	4	27	mm	100	119	474
Frame#	Time	R_Shoulder			L_Shoulder			C7			J_Notch			R_Elbow			L_Elbow			R_Wrist			L_Wrist			R_Asis			L_Asis			R_Psis			L_Psis			Sacral			Thoracic			Sternum			R_Thigh_Lateral			R_Knee_Lateral			R_Shank_Lateral			R_Ankle_Lateral			R_Heel			R_Toe			L_Thigh_Lateral			L_Knee_Lateral			L_Shank_Lateral			L_Ankle_Lateral			L_Heel			L_Toe		
		X1	Y1	Z1	X2	Y2	Z2	X3	Y3	Z3	X4	Y4	Z4	X5	Y5	Z5	X6	Y6	Z6	X7	Y7	Z7	X8	Y8	Z8	X9	Y9	Z9	X10	Y10	Z10	X11	Y11	Z11	X12	Y12	Z12	X13	Y13	Z13	X14	Y14	Z14	X15	Y15	Z15	X16	Y16	Z16	X17	Y17	Z17	X18	Y18	Z18	X19	Y19	Z19	X20	Y20	Z20	X21	Y21	Z21	X22	Y22	Z22	X23	Y23	Z23	X24	Y24	Z24	X25	Y25	Z25	X26	Y26	Z26	X27	Y27	Z27
119	1.18000000	-948.352173	1306.799561	-52.601978	-921.074829	1331.600586	-432.366821	-998.511414	1379.826294	-232.681732	-852.311523	1261.568604	-249.807083	-1037.271240	1003.924255	4.131620	-937.605713	1012.170349	-528.260498	-1012.050171	775.173950	16.715159	-788.080566	851.623718	-523.752914	-924.835205	874.484558	-74.654602	-979.791382	851.268188	-420.889526	-1088.332397	905.929260	-175.026855	-1101.019775	899.597046	-266.384460	-1094.676086	902.763153	-220.705658	-1081.224609	1133.602051	-241.576324	-817.616943	1071.204712	-253.419662	-862.847656	532.375183	-58.762791	-857.049377	442.739166	-111.553467	-853.221436	269.847168	-48.680393	-863.409546	58.897057	-143.269272	-913.541931	52.109222	-187.232498	-734.340393	46.380451	-171.848633	-977.948181	493.005432	-422.998291	-999.153503	419.416687	-376.961823	-1074.119141	327.728851	-429.843933	-1243.796265	134.698792	-359.411102	-1284.603638	154.428543	-312.928375	-1147.414917	46.083008	-337.581451
120	1.19000000	-938.107544	1308.071045	-51.034805	-912.421692	1332.712524	-430.870728	-989.094604	1380.903564	-230.894745	-842.914307	1262.758423	-248.485214	-1025.961548	1004.979675	6.369042	-931.723999	1012.977295	-525.692871	-998.777649	776.590881	18.776963	-783.452087	851.171631	-522.264679	-914.989075	875.935303	-73.016685	-970.844116	851.946350	-418.865479	-1078.812378	907.250732	-173.157104	-1091.772339	900.536926	-264.498352	-1085.292358	903.893829	-218.827728	-1071.809082	1134.708252	-239.591690	-808.182556	1072.480591	-252.028946	-859.363464	532.130249	-56.753017	-853.729492	442.608337	-109.888664	-853.372314	269.064331	-47.529724	-863.354919	58.761612	-143.090866	-913.521851	52.172832	-187.022491	-734.289673	46.358959	-171.607529	-960.162781	492.868439	-422.240417	-980.727966	419.688446	-376.842834	-1056.645142	329.954346	-429.873535	-1232.628174	142.716248	-360.277985	-1272.561646	164.171448	-313.680603	-1140.859497	48.690651	-338.902618
121	1.20000000	-927.858459	1309.251709	-49.521965	-903.857300	1333.770386	-429.436890	-979.708496	1381.959717	-229.142715	-833.567322	1263.895264	-247.241486	-1014.441101	1005.895691	8.631251	-926.057678	1013.720154	-523.093323	-984.978058	777.840759	20.813591	-779.240723	850.528259	-520.695557	-905.275146	877.246948	-71.414711	-962.017578	852.504639	-416.939178	-1069.405396	908.538269	-171.345352	-1082.608521	901.479126	-262.669647	-1076.006958	905.008698	-217.007500	-1062.454346	1135.801880	-237.605286	-798.825378	1073.650024	-250.762756	-856.111755	531.876709	-54.759003	-850.636169	442.439423	-108.223083	-852.507690	268.414459	-46.446323	-863.357727	58.615551	-142.915756	-913.551025	52.234180	-186.806351	-734.285095	46.339455	-171.345657	-942.114075	492.908173	-421.645416	-962.283508	420.007050	-376.777435	-1038.740723	332.017731	-429.758789	-1220.182617	150.145203	-360.926453	-1259.301758	172.848465	-314.089172	-1132.195557	51.845551	-340.674408
122	1.21000000	-917.623352	1310.319336	-48.069897	-895.377258	1334.752808	-428.072296	-970.356567	1382.979492	-227.433807	-824.273438	1264.961670	-246.079956	-1002.715942	1006.651367	10.905993	-920.585388	1014.383423	-520.473511	-970.723145	778.891052	22.813878	-775.424103	849.691467	-519.049637	-895.722595	878.404907	-69.850616	-953.286926	852.948425	-415.128723	-1060.113403	909.771118	-169.596710	-1073.525635	902.410339	-260.904358	-1066.819519	906.090729	-215.250534	-1053.163208	1136.866699	-235.624741	-789.548401	1074.693481	-249.633057	-852.803162	531.645508	-52.853920	-847.619934	442.240234	-106.611244	-850.589417	267.905365	-45.432377	-863.387329	58.468277	-142.752426	-913.601624	52.309116	-186.590393	-734.299194	46.304344	-171.088211	-924.138367	493.260651	-421.179321	-944.028198	420.462463	-376.705505	-1020.694031	334.048218	-429.458862	-1206.478882	156.764175	-361.323822	-1244.873535	180.188080	-314.112762	-1121.272705	55.377758	-342.849152
